PathFileType	4	(X/Y/Z)	C:/Users/opensim2020/Desktop/walking_exp_matlab/subject01_walking13_straight_04.trc																																																																																																																												
DataRate	CameraRate	NumFrames	NumMarkers	Units	OrigDataRate	OrigDataStartFrame	OrigNumFrames																																																																																																																								
100	100	7	42	mm	100	2193	135																																																																																																																								
Frame#	Time	LFHD			RFHD			LBHD			RBHD			C7			T10			CLAV			STRN			RBAK			LSHO			LUPA			LELB			LFRM			LWRA			LWRB			LFIN			RSHO			RUPA			RELB			RFRM			RWRA			RWRB			RFIN			LASI			RASI			LPSI			RPSI			LTHI			LKNE			LTIB			LANK			LHEE			LTOE			RTHI			RKNE			RTIB			RANK			RHEE			RTOE			*39			*40			*41		
		X1	Y1	Z1	X2	Y2	Z2	X3	Y3	Z3	X4	Y4	Z4	X5	Y5	Z5	X6	Y6	Z6	X7	Y7	Z7	X8	Y8	Z8	X9	Y9	Z9	X10	Y10	Z10	X11	Y11	Z11	X12	Y12	Z12	X13	Y13	Z13	X14	Y14	Z14	X15	Y15	Z15	X16	Y16	Z16	X17	Y17	Z17	X18	Y18	Z18	X19	Y19	Z19	X20	Y20	Z20	X21	Y21	Z21	X22	Y22	Z22	X23	Y23	Z23	X24	Y24	Z24	X25	Y25	Z25	X26	Y26	Z26	X27	Y27	Z27	X28	Y28	Z28	X29	Y29	Z29	X30	Y30	Z30	X31	Y31	Z31	X32	Y32	Z32	X33	Y33	Z33	X34	Y34	Z34	X35	Y35	Z35	X36	Y36	Z36	X37	Y37	Z37	X38	Y38	Z38	X39	Y39	Z39	X40	Y40	Z40	X41	Y41	Z41	X42	Y42	Z42
																																																																																																																															
85	0.84	129.33641	1669.41931	-1491.37158	138.6682	1667.38135	-1377.94507	10.04157	1634.07434	-1490.56885	16.43632	1630.93237	-1369.82959	-45.56443	1438.42383	-1452.32996	-86.58963	1143.35571	-1446.03503	96.90254	1367.76196	-1454.58496	139.29739	1215.0448	-1465.48828	-103.29207	1242.79077	-1374.60876	31.68054	1402.93347	-1614.04041	-25.24553	1232.93359	-1705.71606	-55.84153	1082.31433	-1719.57898	6.22185	980.4386	-1738.66418	111.12763	891.29852	-1713.85645	59.37675	870.8847	-1737.28015	122.94646	819.04285	-1749.72449	35.86423	1395.2439	-1301.04456	-34.63914	1201.99683	-1199.97632	-43.44456	1073.89124	-1195.69702	1.06209	956.91663	-1178.42004	96.14218	858.85889	-1215.33936	57.58124	847.65021	-1174.12036	112.71738	787.49152	-1175.65955	88.58685	938.5719	-1564.15381	98.72873	939.19232	-1346.63696	-93.64297	949.25635	-1507.38245	-86.59484	955.58203	-1362.73853	122.89015	617.50299	-1640.53979	137.50589	485.75012	-1635.02222	7.49515	357.71432	-1626.26245	-124.20071	185.15987	-1567.89685	-165.55133	180.97675	-1504.26318	-37.41413	69.83356	-1592.39783	35.71412	603.55627	-1300.61621	37.56157	445.44174	-1331.02966	-26.07552	279.66815	-1326.12109	-69.83736	79.50542	-1380.60632	-125.21597	46.99187	-1427.16467	68.34216	33.81489	-1393.70605	130.18915	1702.79956	-1398.73108	-1973.17615	1023.56366	3101.81885	-2012.55017	1022.08807	3140.69946
86	0.85	143.1114	1669.14148	-1491.76721	152.07652	1667.20251	-1378.23804	23.73663	1634.06714	-1491.27344	29.74996	1631.00061	-1370.44885	-32.51657	1438.6217	-1452.70264	-74.14682	1143.63245	-1446.06848	110.33546	1368.02417	-1455.10522	151.87117	1214.84155	-1465.64099	-90.64245	1243.26672	-1374.54517	44.69654	1402.81128	-1614.4126	-14.25079	1233.18286	-1705.53943	-46.92704	1083.00281	-1718.35266	11.51897	979.05853	-1737.6438	113.4316	886.26801	-1713.09839	60.84371	867.70575	-1736.40662	122.43123	813.67975	-1748.92871	48.80782	1395.63306	-1301.49536	-21.42771	1202.59534	-1199.90027	-28.9671	1074.12988	-1195.15735	19.15433	958.23511	-1178.67822	116.99368	863.47491	-1216.77649	79.31676	851.06152	-1175.54102	136.42432	792.73657	-1177.21191	100.86926	938.78894	-1563.67407	110.08625	938.86572	-1346.18652	-81.44586	949.63263	-1507.68018	-74.97575	956.03015	-1363.13086	140.24394	619.77704	-1640.48962	157.71114	488.3205	-1634.18359	33.085	353.668	-1626.3562	-90.57821	175.1364	-1568.1687	-131.6086	167.74344	-1504.42725	2.76718	67.1211	-1595.40784	42.32146	603.82831	-1300.44434	41.18119	445.54596	-1330.4176	-24.33195	280.75977	-1326.49133	-69.4858	80.4316	-1380.86096	-124.24715	48.60579	-1427.62268	68.51876	33.78764	-1393.69092	143.6985	1702.58264	-1399.10693	-1973.06836	1023.37933	3102.01416	-2012.49683	1021.995	3140.81812
87	0.86	156.78647	1668.74915	-1492.21948	165.39647	1666.93323	-1378.66577	37.36726	1633.91992	-1492.03772	43.01768	1631.05957	-1371.25232	-19.44039	1438.75391	-1453.17505	-61.7181	1143.81006	-1446.18701	123.23603	1367.66626	-1455.53455	164.36693	1214.44666	-1465.81458	-78.00404	1243.63831	-1374.57043	57.6795	1402.58301	-1614.96399	-3.14775	1233.22998	-1705.38464	-37.89783	1083.48511	-1717.2887	16.98528	977.72125	-1736.77112	115.86757	881.47687	-1712.4718	62.54025	864.71411	-1735.5271	122.1554	808.42218	-1748.09229	61.69004	1395.62207	-1302.203	-8.13017	1202.97559	-1199.84802	-14.62309	1074.27209	-1194.69409	36.99179	959.58392	-1178.98206	138.12889	868.46783	-1217.93213	100.71295	854.50806	-1176.76428	159.76871	798.09802	-1178.91785	113.25004	938.86469	-1563.52344	121.41414	938.37994	-1345.86072	-69.35038	949.80524	-1508.0271	-63.48661	956.24731	-1363.48547	157.26697	621.84985	-1640.43542	177.38838	490.50778	-1633.52856	58.75538	348.72321	-1626.7616	-56.24128	164.83685	-1568.68701	-96.4162	154.25523	-1504.68701	43.86969	63.72085	-1598.33228	49.16153	603.96124	-1300.32385	44.9014	445.95609	-1330.18787	-22.3406	281.7916	-1326.86157	-68.47563	81.41477	-1380.97754	-123.51707	50.34222	-1427.65308	68.69691	33.76362	-1393.80029	157.16533	1702.29333	-1399.64441	-1973.1698	1023.51202	3102.03271	-2012.46021	1021.97552	3140.68481
88	0.87	170.44603	1668.31885	-1492.79883	178.72809	1666.63623	-1379.19482	50.94744	1633.69678	-1492.96021	56.20925	1630.95874	-1372.1521	-6.45187	1438.69666	-1453.77502	-49.29002	1143.87805	-1446.37402	136.577	1367.64172	-1456.20032	176.92506	1213.9248	-1465.96387	-65.41781	1243.96033	-1374.72632	70.81061	1402.06677	-1615.51978	8.06187	1233.12207	-1705.29724	-28.60475	1083.8689	-1716.36255	22.65688	976.42535	-1735.95935	118.46027	876.75287	-1711.76685	64.40096	861.96393	-1734.80359	122.05489	803.43188	-1747.27283	74.88696	1396.08484	-1302.4967	5.10335	1203.24036	-1200.00366	-0.31894	1074.30322	-1194.23975	54.6174	960.85944	-1179.34351	158.41417	873.21161	-1219.27649	121.60216	857.86053	-1177.93079	182.72414	803.6319	-1180.64868	125.65174	938.62073	-1563.34937	132.76541	937.68762	-1345.54443	-57.20321	949.73291	-1508.39368	-51.90028	956.31549	-1363.92261	173.83101	623.65521	-1640.4292	196.36707	492.32681	-1632.79822	84.39349	343.54401	-1627.25232	-20.88547	154.1091	-1569.40979	-60.03832	140.14299	-1505.28235	84.91705	60.76696	-1601.82031	56.01728	604.03271	-1300.25452	48.95984	445.88629	-1329.99683	-19.83368	282.80063	-1327.31409	-67.68996	82.63177	-1381.01318	-123.51304	52.25458	-1428.26343	68.58665	33.50776	-1393.66138	170.55804	1702.00916	-1400.30396	-1973.24255	1023.34949	3101.89575	-2012.42871	1022.03284	3140.75659
89	0.88	184.07765	1667.77673	-1493.52478	191.92073	1666.1908	-1379.74878	64.52612	1633.36914	-1494.0614	69.35875	1630.84253	-1373.2146	6.87346	1438.6604	-1454.11401	-36.799	1143.82825	-1446.56104	148.51031	1366.52161	-1456.57483	189.47217	1213.26794	-1466.16504	-52.82765	1244.16833	-1374.97095	83.94836	1401.4458	-1616.22827	19.48469	1232.78259	-1705.33655	-19.1492	1084.10706	-1715.59448	28.60906	975.21729	-1735.3009	121.22703	872.34265	-1711.33313	66.55945	859.44995	-1734.26892	122.1202	798.76147	-1746.58447	87.71	1395.87012	-1303.35754	18.3088	1203.35071	-1200.22949	13.97248	1074.26477	-1193.90063	72.15255	962.13617	-1179.71777	178.87793	878.28754	-1220.39832	142.57317	861.4881	-1179.33936	205.08444	809.12427	-1182.36218	138.09567	938.32819	-1563.26868	144.18449	936.88208	-1345.26233	-44.9771	949.4743	-1508.86633	-40.34838	956.15668	-1364.44165	190.10927	625.15643	-1640.43604	214.71532	493.7092	-1631.97644	110.12622	338.34741	-1627.80554	15.2997	143.51379	-1570.82544	-22.63671	126.04452	-1506.44666	126.74866	57.81007	-1605.39722	62.74019	603.97485	-1300.28418	53.13091	445.9313	-1329.96814	-17.18578	283.58643	-1327.57788	-67.10634	83.92574	-1381.21472	-122.87457	54.07355	-1428.35437	68.99679	33.67479	-1393.52026	183.89586	1701.62573	-1401.07178	-1973.07361	1023.54266	3101.93213	-2012.53882	1022.1344	3140.80762
90	0.89	197.6962	1667.15613	-1494.27808	205.1192	1665.75293	-1380.49121	78.09389	1632.90393	-1495.23743	82.47855	1630.57141	-1374.31067	19.71985	1438.3595	-1455.31091	-24.22479	1143.66467	-1446.8501	161.44423	1365.89795	-1457.24438	202.10927	1212.54651	-1466.41785	-40.24046	1244.27441	-1375.33313	97.13765	1400.6416	-1617.00696	31.05647	1232.26697	-1705.53235	-9.44118	1084.13184	-1714.84814	34.8584	974.01935	-1734.73181	124.27222	868.19513	-1711.02686	69.08529	857.03809	-1733.70105	122.54319	794.35657	-1745.90808	100.64777	1395.86792	-1304.15967	31.576	1203.27307	-1200.53369	28.1921	1074.22498	-1193.61487	89.47762	963.4939	-1180.16602	198.60918	883.27203	-1221.57312	162.7218	865.05255	-1180.39685	227.06458	814.58313	-1184.06543	150.68968	937.88495	-1563.19519	155.64363	935.95673	-1344.95642	-32.7253	948.98578	-1509.44373	-28.64023	955.84253	-1365.06689	206.01787	626.36035	-1640.49658	232.86449	494.86285	-1631.51367	135.74342	333.24902	-1628.71301	52.19154	133.00511	-1572.89331	15.55529	112.44292	-1508.42834	168.95833	55.61825	-1608.94885	69.69263	603.91888	-1300.52466	57.55113	446.21283	-1330.09021	-14.35043	284.43661	-1327.82397	-66.21079	85.18505	-1381.32288	-122.42589	55.90404	-1428.70691	69.14584	33.61849	-1393.57019	197.17551	1701.08313	-1401.83801	-1973.14612	1023.38068	3102.10327	-2012.58459	1022.1734	3140.77637
91	0.9	211.21094	1666.39258	-1495.14026	218.18729	1665.21594	-1381.35583	91.6264	1632.31335	-1496.5625	95.49719	1630.14966	-1375.63135	32.80032	1438.11011	-1456.37817	-11.69201	1143.36584	-1447.27466	174.45978	1365.29163	-1457.99731	214.75558	1211.72412	-1466.65271	-27.63757	1244.23474	-1375.84094	110.35769	1399.68787	-1617.91968	42.80757	1231.5813	-1705.83997	0.44154	1084.03296	-1714.27234	41.42072	972.90179	-1734.24463	127.55576	864.19818	-1710.7218	71.89532	854.87976	-1733.17957	123.30016	790.28784	-1745.37634	113.40513	1395.83423	-1305.14063	44.77702	1203.24365	-1201.0929	42.3753	1074.12988	-1193.44727	106.543	964.85626	-1180.69958	217.94809	888.12909	-1222.81311	182.79378	868.80548	-1181.97949	248.66159	820.33398	-1185.95593	163.37103	937.3548	-1563.15784	167.50511	935.19788	-1344.67737	-20.3305	948.26276	-1510.11841	-16.98671	955.34937	-1365.77161	221.60443	627.3028	-1640.72009	249.96695	495.68481	-1630.92358	161.44835	328.31845	-1630.0769	90.05924	122.75051	-1575.48303	54.70126	99.30036	-1511.21655	211.83842	54.02593	-1612.2334	76.9571	604.04694	-1300.73254	62.27643	446.13763	-1330.14014	-11.55424	285.66019	-1328.0564	-65.34489	86.70139	-1381.42834	-121.87901	58.16381	-1428.63293	69.24721	33.60611	-1393.58936	210.40706	1700.50891	-1402.76331	-1973.20874	1023.53033	3101.94971	-2012.53284	1022.2392	3140.76904
